<svg width="18" height="20" viewBox="0 0 18 20" fill="none" xmlns="http://www.w3.org/2000/svg">
<path d="M2.76172 17.668C0.6875 15.5234 0.722656 12.1133 2.79688 10.0039L10.1797 2.44531C11.7266 0.863281 14.2578 0.863281 15.8398 2.44531C17.3516 4.02734 17.3867 6.59375 15.8398 8.17578L9.40625 14.75C8.35156 15.8047 6.62891 15.8047 5.60938 14.7148C4.58984 13.6602 4.625 11.9727 5.64453 10.9531L10.707 5.78516C10.918 5.57422 11.2695 5.53906 11.5156 5.78516L12.2891 6.55859C12.5352 6.76953 12.5352 7.12109 12.3242 7.36719L7.26172 12.5C7.08594 12.6758 7.08594 12.9922 7.22656 13.168C7.40234 13.3086 7.64844 13.3086 7.78906 13.168L14.2227 6.59375C14.8906 5.89062 14.8906 4.73047 14.2227 4.02734C13.5547 3.35938 12.4648 3.35938 11.7969 4.02734L4.41406 11.5859C3.18359 12.8164 3.18359 14.8555 4.37891 16.0859C5.57422 17.3164 7.50781 17.3164 8.70312 16.0859L14.75 9.89844C14.9609 9.6875 15.3125 9.6875 15.5234 9.89844L16.332 10.707C16.5781 10.918 16.5781 11.2695 16.3672 11.4805L10.3203 17.668C8.21094 19.8125 4.83594 19.7773 2.76172 17.668Z" fill="#D9D9D9"/>
</svg>
