<svg width="200" height="148" viewBox="0 0 200 148" fill="none" xmlns="http://www.w3.org/2000/svg">
<path fill-rule="evenodd" clip-rule="evenodd" d="M191.516 69.697C191.516 67.3539 193.415 65.4545 195.758 65.4545C198.101 65.4545 200 67.3539 200 69.697V147.879H191.516V69.697Z" fill="#5286F8"/>
<path fill-rule="evenodd" clip-rule="evenodd" d="M163.637 85.4545C163.637 83.1115 165.536 81.2121 167.879 81.2121C170.222 81.2121 172.122 83.1115 172.122 85.4545V147.879H163.637V85.4545Z" fill="#5286F8"/>
<path fill-rule="evenodd" clip-rule="evenodd" d="M130.908 55.1515C130.908 52.8085 132.808 50.9091 135.151 50.9091C137.494 50.9091 139.393 52.8085 139.393 55.1515V147.879H130.908V55.1515Z" fill="#5286F8"/>
<path fill-rule="evenodd" clip-rule="evenodd" d="M98.1816 29.697C98.1816 27.3539 100.081 25.4545 102.424 25.4545C104.767 25.4545 106.666 27.3539 106.666 29.697V147.879H98.1816V29.697Z" fill="#5286F8"/>
<path fill-rule="evenodd" clip-rule="evenodd" d="M65.4551 95.1515C65.4551 92.8085 67.3545 90.9091 69.6975 90.9091C72.0405 90.9091 73.9399 92.8085 73.9399 95.1515V147.879H65.4551V95.1515Z" fill="#5286F8"/>
<path fill-rule="evenodd" clip-rule="evenodd" d="M32.7266 74.5455C32.7266 72.2024 34.626 70.303 36.969 70.303C39.312 70.303 41.2114 72.2024 41.2114 74.5455V147.879H32.7266V74.5455Z" fill="#5286F8"/>
<path fill-rule="evenodd" clip-rule="evenodd" d="M0 4.24243C0 1.8994 1.8994 0 4.24242 0C6.58545 0 8.48485 1.8994 8.48485 4.24242V147.879H0V4.24243Z" fill="#5286F8"/>
</svg>
