<svg width="14" height="19" viewBox="0 0 14 19" fill="none" xmlns="http://www.w3.org/2000/svg">
<path d="M14 4.53906V4.75H9.5V0.25H9.71094C9.92188 0.25 10.1328 0.355469 10.3086 0.53125L13.7188 3.94141C13.8945 4.11719 14 4.32812 14 4.53906ZM9.21875 5.875H14V17.4062C14 17.8984 13.6133 18.25 13.1562 18.25H1.34375C0.851562 18.25 0.5 17.8984 0.5 17.4062V1.09375C0.5 0.636719 0.851562 0.25 1.34375 0.25H8.375V5.03125C8.375 5.52344 8.72656 5.875 9.21875 5.875ZM4.4375 6.4375C3.52344 6.4375 2.75 7.21094 2.75 8.125C2.75 9.07422 3.52344 9.8125 4.4375 9.8125C5.38672 9.8125 6.125 9.07422 6.125 8.125C6.125 7.21094 5.38672 6.4375 4.4375 6.4375ZM11.75 14.875V10.9375L10.3789 9.56641C10.2031 9.39062 9.92188 9.39062 9.78125 9.56641L6.125 13.1875L4.75391 11.8164C4.57812 11.6406 4.33203 11.6406 4.15625 11.7812L2.78516 13.1875L2.75 14.875H11.75Z" fill="#D9D9D9"/>
</svg>
