<svg width="22" height="22" viewBox="0 0 22 22" fill="none" xmlns="http://www.w3.org/2000/svg">
<path fill-rule="evenodd" clip-rule="evenodd" d="M5.37754 2.69214C9.35678 0.00346601 14.6854 0.523149 18.0702 3.93001L18.1202 3.95001C21.527 7.33477 22.0467 12.6634 19.358 16.6426C16.6694 20.6219 11.5316 22.1279 7.12016 20.23C6.91828 20.1449 6.69769 20.1139 6.48016 20.14L2.20016 21H2.00016C1.72746 21.007 1.46375 20.9022 1.27016 20.71C1.03276 20.4714 0.931288 20.1294 1.00016 19.8L1.88016 15.57C1.91751 15.3525 1.88605 15.1288 1.79016 14.93C-0.107749 10.5185 1.39831 5.38081 5.37754 2.69214ZM6.00016 11C6.00016 11.5523 6.44787 12 7.00016 12C7.55244 12 8.00016 11.5523 8.00016 11C8.00016 10.4477 7.55244 10 7.00016 10C6.44787 10 6.00016 10.4477 6.00016 11ZM11.0002 12C10.4479 12 10.0002 11.5523 10.0002 11C10.0002 10.4477 10.4479 10 11.0002 10C11.5524 10 12.0002 10.4477 12.0002 11C12.0002 11.5523 11.5524 12 11.0002 12ZM14.0002 11C14.0002 11.5523 14.4479 12 15.0002 12C15.5524 12 16.0002 11.5523 16.0002 11C16.0002 10.4477 15.5524 10 15.0002 10C14.4479 10 14.0002 10.4477 14.0002 11Z" fill="white"/>
</svg>
