<svg width="13" height="19" viewBox="0 0 13 19" fill="none" xmlns="http://www.w3.org/2000/svg">
<path d="M6.1875 12.625C4.28906 12.625 2.8125 11.1484 2.8125 9.25V3.625C2.8125 1.76172 4.28906 0.25 6.1875 0.25C8.05078 0.25 9.5625 1.76172 9.5625 3.625V9.25C9.5625 11.1484 8.05078 12.625 6.1875 12.625ZM11.8125 7C12.0938 7 12.375 7.28125 12.375 7.5625V9.25C12.375 12.3789 10.0195 14.9805 7.03125 15.4023V16.5625H9C9.28125 16.5625 9.5625 16.8438 9.5625 17.125V17.6875C9.5625 18.0039 9.28125 18.25 9 18.25H3.375C3.05859 18.25 2.8125 18.0039 2.8125 17.6875V17.125C2.8125 16.8438 3.05859 16.5625 3.375 16.5625H5.34375V15.3672C2.21484 14.9453 0 12.1328 0 9.00391V7.5625C0 7.28125 0.246094 7 0.5625 7H1.125C1.40625 7 1.6875 7.28125 1.6875 7.5625V9.07422C1.6875 11.4297 3.375 13.5039 5.73047 13.75C8.40234 13.9961 10.6875 11.8867 10.6875 9.25V7.5625C10.6875 7.28125 10.9336 7 11.25 7H11.8125Z" fill="#D9D9D9"/>
</svg>
